#define max_width 8
#define max_height 8
static unsigned char max_bits[] = {
   0xff, 0x83, 0x87, 0x8f, 0x9f, 0xbf, 0xff, 0xff };
