#define max_toggled_width 8
#define max_toggled_height 8
static unsigned char max_toggled_bits[] = {
   0xff, 0xff, 0xfd, 0xf9, 0xf1, 0xe1, 0xc1, 0xff };
