#define shade_width 8
#define shade_height 8
static unsigned char shade_bits[] = {
   0xff, 0x81, 0x81, 0xff, 0xff, 0xff, 0xff, 0xff };
